<?xml version="1.0" encoding="UTF-8" standalone="no"?>
<svg
   width="36"
   height="36"
   viewBox="0 0 36 36"
   fill="none"
   version="1.1"
   inkscape:version="1.3.2 (091e20e, 2023-11-25, custom)"
   xmlns:inkscape="http://www.inkscape.org/namespaces/inkscape"
   xmlns:sodipodi="http://sodipodi.sourceforge.net/DTD/sodipodi-0.dtd"
   xmlns="http://www.w3.org/2000/svg"
   xmlns:svg="http://www.w3.org/2000/svg">
  <path
     fill-rule="evenodd"
     clip-rule="evenodd"
     d="M 34.93098,29.830367 31.683349,6.1690396 c 0,0 -0.04587,-0.3930848 -0.51697,-0.8462254 C 30.769297,4.9416613 30.270568,4.9395529 30.270568,4.9395529 h -4.778303 c 0,0 -0.466716,0.045234 -0.672857,0.3803733 -0.149429,0.2425441 -0.234546,0.4494843 -0.234546,0.4494843 L 19.345924,18.466842 c -0.114759,0.356235 -0.445343,0.615385 -0.84005,0.615385 -0.377421,0 -0.697366,-0.236731 -0.825232,-0.569027 L 12.225967,5.7657527 c 0,0 -0.126721,-0.3255136 -0.359276,-0.5721038 C 11.618087,4.929341 11.181675,4.9395529 11.181675,4.9395529 H 6.3168215 c 0,0 -0.5581111,0.030413 -0.9380288,0.3414916 -0.4252405,0.3480373 -0.4877289,0.918213 -0.4877289,0.918213 L 1.0681654,30.149744 c 0,0 -0.017163,0.329162 0.3129987,0.658703 0.2499365,0.24889 0.6124967,0.252024 0.6124967,0.252024 h 2.7955766 c 0,0 0.3741327,-0.02404 0.6599378,-0.318615 0.2466573,-0.253166 0.2497447,-0.50842 0.2497447,-0.50842 L 7.0837921,18.662534 c 0,0 0.00306,10e-4 0.00353,10e-4 0.030658,-0.46092 0.410773,-0.826466 0.8803659,-0.826466 0.3428898,0 0.6367986,0.196549 0.7843277,0.48087 0.01658,0.0061 0.026228,0.0095 0.026228,0.0095 l 5.2000693,12.257026 c 0,0 -0.04284,-0.09471 0.13052,0.146484 0.235496,0.326027 0.661457,0.329541 0.661457,0.329541 h 2.395421 c 0,0 0.346166,-0.0416 0.555633,-0.223905 0.23236,-0.202342 0.351961,-0.529699 0.351961,-0.529699 l 5.019117,-11.96941 h 0.0015 c 0.121498,-0.345881 0.450851,-0.595627 0.84214,-0.595627 0.494645,0 0.895244,0.39585 0.895244,0.884416 0,0.0049 -0.0013,0.01 -0.0013,0.015 l 1.283587,11.205453 c 0,0 0.03743,0.455316 0.430237,0.863039 0.294298,0.306078 0.814781,0.350725 0.814781,0.350725 h 6.35503 c 0,0 0.552781,0.0092 0.855915,-0.385398 0.400788,-0.521909 0.361365,-0.844706 0.361365,-0.844706 z"
     fill="#2b2b2a"
     style="stroke-width:0.949961" />
</svg>
