<?xml version="1.0" encoding="UTF-8" standalone="no"?>
<svg
   width="36"
   height="36"
   viewBox="0 0 36 36"
   fill="none"
   version="1.1"
   id="svg7"
   sodipodi:docname="app-logo.svg"
   inkscape:version="1.3.2 (091e20e, 2023-11-25, custom)"
   xmlns:inkscape="http://www.inkscape.org/namespaces/inkscape"
   xmlns:sodipodi="http://sodipodi.sourceforge.net/DTD/sodipodi-0.dtd"
   xmlns="http://www.w3.org/2000/svg"
   xmlns:svg="http://www.w3.org/2000/svg">
  <defs
     id="defs7" />
  <sodipodi:namedview
     id="namedview7"
     pagecolor="#ffffff"
     bordercolor="#000000"
     borderopacity="0.25"
     inkscape:showpageshadow="2"
     inkscape:pageopacity="0.0"
     inkscape:pagecheckerboard="0"
     inkscape:deskcolor="#d1d1d1"
     inkscape:zoom="1.734375"
     inkscape:cx="56.216216"
     inkscape:cy="26.234234"
     inkscape:window-width="1366"
     inkscape:window-height="705"
     inkscape:window-x="-8"
     inkscape:window-y="-8"
     inkscape:window-maximized="1"
     inkscape:current-layer="svg7" />
  <ellipse
     style="fill:#ffffff;fill-opacity:1;stroke:#2b2b2a;stroke-width:1.0015;stroke-dasharray:none;stroke-opacity:1"
     id="path7"
     cx="18"
     cy="18.000002"
     rx="17.499249"
     ry="17.49925" />
  <path
     fill-rule="evenodd"
     clip-rule="evenodd"
     d="M 30.030122,26.405916 27.722554,9.5936238 c 0,0 -0.0326,-0.279302 -0.367327,-0.601276 -0.282143,-0.270824 -0.636509,-0.272322 -0.636509,-0.272322 h -3.39517 c 0,0 -0.33162,0.03214 -0.478091,0.27027 -0.106175,0.172337 -0.166654,0.319376 -0.166654,0.319376 L 18.956334,18.33169 c -0.08154,0.253119 -0.316433,0.437255 -0.596888,0.437255 -0.268172,0 -0.495506,-0.168206 -0.586359,-0.404316 L 13.897328,9.3070728 c 0,0 -0.09004,-0.23129 -0.255279,-0.406502 -0.176643,-0.187801 -0.486731,-0.180545 -0.486731,-0.180545 H 9.6986509 c 0,0 -0.3965599,0.02161 -0.6665062,0.242643 -0.3021499,0.247294 -0.3465503,0.652426 -0.3465503,0.652426 L 5.9692766,26.632846 c 0,0 -0.012195,0.233882 0.2223977,0.468034 0.1775896,0.176846 0.4352027,0.179073 0.4352027,0.179073 h 1.9863658 c 0,0 0.2658358,-0.01708 0.4689114,-0.226389 0.1752596,-0.179884 0.1774533,-0.361252 0.1774533,-0.361252 l 0.9840055,-8.221575 c 0,0 0.0022,7.42e-4 0.0025,7.42e-4 0.02178,-0.327502 0.29187,-0.587236 0.625534,-0.587236 0.243636,0 0.45247,0.139655 0.557295,0.341677 0.01178,0.0043 0.01864,0.0068 0.01864,0.0068 l 3.694855,8.709049 c 0,0 -0.03044,-0.0673 0.09274,0.104082 0.167329,0.231655 0.469991,0.234152 0.469991,0.234152 h 1.70204 c 0,0 0.245964,-0.02956 0.394798,-0.159093 0.165101,-0.143772 0.250082,-0.376372 0.250082,-0.376372 l 3.566278,-8.504731 h 0.0011 c 0.08633,-0.245761 0.320348,-0.423215 0.598374,-0.423215 0.351464,0 0.636105,0.281266 0.636105,0.628411 0,0.0035 -9.45e-4,0.0071 -9.45e-4,0.01066 l 0.912038,7.961909 c 0,0 0.02659,0.32352 0.3057,0.613223 0.20911,0.21748 0.578934,0.249204 0.578934,0.249204 h 4.515508 c 0,0 0.392773,0.0065 0.608161,-0.273841 0.284775,-0.370836 0.256764,-0.600196 0.256764,-0.600196 z"
     fill="#2b2b2a"
     id="path6"
     style="stroke-width:0.674984" />
</svg>
