<svg width="192" height="29" viewBox="0 0 192 29" fill="none" xmlns="http://www.w3.org/2000/svg">
<path fill-rule="evenodd" clip-rule="evenodd" d="M170.244 27.496L160.322 2.40242C160.322 2.40242 160.091 1.7556 159.726 1.45975C159.301 1.11607 158.93 1.10857 158.93 1.10857H155.158C155.158 1.10857 154.773 1.1029 154.397 1.47879C154.137 1.73918 153.942 2.25206 153.897 2.38175C153.893 2.38945 153.888 2.39289 153.885 2.40161C153.876 2.42795 153.865 2.4545 153.854 2.48145C150.471 11.3467 144.318 25.3218 143.212 27.8212C143.212 27.8212 143.116 28.0791 143.257 28.3355C143.397 28.5896 143.715 28.6086 143.715 28.6086L147.874 28.6052C147.874 28.6052 147.995 28.59 148.123 28.4881C148.225 28.4054 148.263 28.2635 148.263 28.2635L149.881 23.5792C149.881 23.5792 149.948 23.3862 150.12 23.2339C150.301 23.0728 150.705 23.1149 150.705 23.1149L158.533 23.1094C158.533 23.1094 158.743 23.0916 158.922 23.1996C159.048 23.2766 159.132 23.4341 159.144 23.4914C159.564 24.6471 160.912 28.0941 160.969 28.2595C160.969 28.2595 160.994 28.3734 161.16 28.513C161.282 28.6147 161.574 28.602 161.574 28.602L169.168 28.5896C169.168 28.5896 169.76 28.6224 170.029 28.3065C170.41 27.8605 170.244 27.496 170.244 27.496ZM157.307 19.3513C157.103 19.6686 156.797 19.6245 156.797 19.6245L152.054 19.6307C152.054 19.6307 151.767 19.6307 151.577 19.3637C151.415 19.1373 151.519 18.8498 151.519 18.8498L153.789 12.3171C153.789 12.3171 153.91 11.9035 154.348 11.911C154.724 11.9171 154.865 12.2665 154.865 12.2665L157.357 18.8498C157.357 18.8498 157.461 19.111 157.307 19.3513Z" fill="#2B2B2A"/>
<path fill-rule="evenodd" clip-rule="evenodd" d="M114.009 1.20142V1.1996H102.177C102.18 1.19595 101.578 1.19453 101.177 1.57854C100.668 2.04947 100.677 2.49568 100.677 2.49568V27.3631C100.677 27.3631 100.643 27.9029 101.097 28.28C101.498 28.6135 101.943 28.6547 101.981 28.6537C105.235 28.648 113.483 28.6346 114.009 28.6346V28.6338C120.35 28.6551 127.002 25.2487 127.696 15.6127C128.207 4.02296 119.348 1.30092 114.009 1.20142ZM113.953 25.1535V25.165C112.898 25.4054 112.202 25.4913 110.601 25.4135C110.503 25.409 110.16 25.3387 109.921 25.0554C109.672 24.7604 109.67 24.5229 109.667 24.421C109.456 17.7406 109.495 12.1944 109.669 5.35855C109.672 5.25662 109.729 4.93565 109.984 4.68964C110.238 4.44404 110.586 4.38994 110.687 4.38487C112.283 4.30605 112.901 4.40696 113.953 4.62824V4.63878C117.051 5.31499 118.076 7.77157 118.445 15.0187C118.404 21.2847 117.564 24.2726 113.953 25.1535Z" fill="#2B2B2A"/>
<path fill-rule="evenodd" clip-rule="evenodd" d="M52.7052 0.830729H52.6648C42.1418 0.830729 37.0552 7.26004 37.0552 14.8349C37.0552 22.4099 42.2443 28.8597 52.6648 28.9008H52.7052C63.1865 28.9407 68.3971 22.4512 68.3971 14.8349C68.3971 7.2187 63.2896 0.830729 52.7052 0.830729ZM52.6648 25.7484C49.1156 25.7484 46.2448 23.2908 46.2448 14.8349C46.2448 6.39984 49.1156 3.94265 52.6648 3.94265C56.2334 3.94265 59.1045 6.33844 59.1045 14.8349C59.1045 23.3524 56.2334 25.7484 52.6648 25.7484Z" fill="#2B2B2A"/>
<path fill-rule="evenodd" clip-rule="evenodd" d="M131.358 1.40428C130.971 1.78524 130.897 2.29062 130.897 2.29062V27.2449C130.897 27.2449 130.893 27.6883 131.293 28.1126C131.682 28.5242 132.196 28.5347 132.196 28.5347H138.905C138.905 28.5347 139.438 28.5481 139.82 28.1218C140.211 27.6853 140.208 27.2304 140.208 27.2304V2.29042C140.208 2.29042 140.207 1.72 139.772 1.38159C139.321 1.03082 138.903 0.997993 138.903 0.997993H132.4C132.4 0.997993 131.769 1.00184 131.358 1.40428Z" fill="#2B2B2A"/>
<path fill-rule="evenodd" clip-rule="evenodd" d="M191.999 27.4815V24.7183C191.999 24.7183 192.012 24.4217 191.656 24.0719C191.33 23.7534 190.912 23.7797 190.912 23.7797L183.93 23.784C183.93 23.784 183.925 23.7797 183.918 23.7749C183.434 23.7501 183.048 23.3605 183.035 22.8751C183.03 22.8687 183.027 22.863 183.027 22.863L183.074 2.39184C183.074 2.39184 183.074 1.83944 182.65 1.48462C182.188 1.09799 181.766 1.09698 181.766 1.09698H174.762C174.762 1.09698 174.217 1.10366 173.869 1.51583C173.47 1.9894 173.478 2.38859 173.478 2.38859V27.5144C173.478 27.5144 173.507 27.914 173.795 28.2451C174.122 28.621 174.565 28.5938 174.565 28.5938H190.894C190.894 28.5938 191.326 28.5626 191.661 28.2495C192.029 27.9054 191.999 27.4815 191.999 27.4815Z" fill="#2B2B2A"/>
<path fill-rule="evenodd" clip-rule="evenodd" d="M35.6467 27.7051L32.228 2.79741C32.228 2.79741 32.1797 2.38362 31.6838 1.90661C31.2658 1.50538 30.7408 1.50316 30.7408 1.50316H25.7108C25.7108 1.50316 25.2195 1.55078 25.0025 1.90357C24.8452 2.15889 24.7556 2.37673 24.7556 2.37673L19.2407 15.743C19.1199 16.118 18.7719 16.3908 18.3564 16.3908C17.9591 16.3908 17.6223 16.1416 17.4877 15.7918L11.7457 2.37288C11.7457 2.37288 11.6123 2.03022 11.3675 1.77064C11.1058 1.49241 10.6464 1.50316 10.6464 1.50316H5.52529C5.52529 1.50316 4.93778 1.53517 4.53785 1.86264C4.09021 2.22901 4.02443 2.82922 4.02443 2.82922L0.000160254 28.0413C0.000160254 28.0413 -0.0179074 28.3878 0.329646 28.7347C0.592748 28.9967 0.974406 29 0.974406 29H3.91724C3.91724 29 4.31108 28.9747 4.61194 28.6646C4.87159 28.3981 4.87484 28.1294 4.87484 28.1294L6.33266 15.949C6.33266 15.949 6.33591 15.9501 6.33632 15.9501C6.36859 15.4649 6.76873 15.0801 7.26306 15.0801C7.62401 15.0801 7.9334 15.287 8.0887 15.5863C8.10616 15.5926 8.11631 15.5963 8.11631 15.5963L13.5903 28.4989C13.5903 28.4989 13.5452 28.3992 13.7277 28.6531C13.9756 28.9963 14.424 29 14.424 29H16.9456C16.9456 29 17.31 28.9562 17.5305 28.7643C17.7751 28.5513 17.901 28.2067 17.901 28.2067L23.1845 15.6068H23.1862C23.3141 15.2427 23.6608 14.9798 24.0727 14.9798C24.5934 14.9798 25.0151 15.3965 25.0151 15.9108C25.0151 15.916 25.0137 15.9213 25.0137 15.9266L26.3649 27.7223C26.3649 27.7223 26.4043 28.2016 26.8178 28.6308C27.1276 28.953 27.6755 29 27.6755 29H34.3653C34.3653 29 34.9472 29.0097 35.2663 28.5943C35.6882 28.0449 35.6467 27.7051 35.6467 27.7051Z" fill="#2B2B2A"/>
<path fill-rule="evenodd" clip-rule="evenodd" d="M96.7499 1.39511C96.433 1.09804 95.9815 1.09703 95.9815 1.09703H93.8401C93.8401 1.09703 93.3166 1.10047 93.0342 1.44739C92.739 1.78195 92.7242 2.05368 92.7242 2.05368L92.7327 15.0716C92.7327 15.0748 92.7335 15.0781 92.7335 15.0817C92.7335 15.0848 92.7327 15.088 92.7327 15.091V15.0929H92.7319C92.7262 15.6017 92.3121 16.0124 91.8007 16.0124C91.5366 16.0124 91.2984 15.9016 91.1291 15.7253C91.1275 15.7255 91.123 15.7275 91.123 15.7275L78.8389 1.77708C78.8389 1.77708 78.5563 1.4484 78.4087 1.32702C78.1257 1.09439 77.7377 1.09703 77.7377 1.09703H73.0598C73.0598 1.09703 72.4761 1.06663 72.0451 1.46603C71.563 1.91326 71.5772 2.39493 71.5772 2.39493L71.5957 27.6469C71.5957 27.6469 71.6145 27.9478 71.8994 28.295C72.1481 28.5971 72.5774 28.5939 72.5774 28.5939H75.4927C75.4927 28.5939 75.827 28.5924 76.1736 28.2621C76.4535 27.9947 76.461 27.8062 76.461 27.8062L76.4762 15.5504C76.4752 15.5328 76.4704 15.5158 76.4704 15.4985C76.4704 14.984 76.8884 14.567 77.4036 14.567C77.6665 14.567 77.9034 14.6768 78.0729 14.8519C78.0752 14.8495 78.0786 14.8452 78.0786 14.8452L90.0099 27.9414C90.0099 27.9414 90.2085 28.1537 90.4624 28.3918C90.6732 28.589 91.0094 28.5939 91.0094 28.5939H95.7748C95.7748 28.5939 96.3345 28.6024 96.6711 28.1795C97.0723 27.6759 97.0712 27.2931 97.0712 27.2931V2.04376C97.0712 2.04376 97.0627 1.68934 96.7499 1.39511Z" fill="#2B2B2A"/>
</svg>
